<svg id="Réteg_1" data-name="Réteg 1" xmlns="http://www.w3.org/2000/svg" viewBox="0 0 252.74 244.93"><defs><style>.cls-1{fill:#4ec8e5;}.cls-2{fill:#1fa0b5;}.cls-3{fill:#6eebff;}.cls-4{fill:#f98c69;}.cls-5{fill:#e27254;}.cls-6{fill:#ffaa85;}.cls-7{fill:#cc5a44;}.cls-8{fill:#fff;opacity:0.3;}.cls-9{fill:#606362;}.cls-10{fill:#919191;}</style></defs><polygon class="cls-1" points="182.62 0 129.86 0 126.42 0 73.66 0 55.63 17.51 126.42 17.51 129.86 17.51 200.65 17.51 182.62 0"/><polygon class="cls-2" points="90.43 0 73.66 0 55.63 17.51 82.81 17.51 90.43 0"/><polygon class="cls-3" points="173.47 17.51 200.65 17.51 182.62 0 165.86 0 173.47 17.51"/><rect class="cls-4" x="27.73" y="21.77" width="197.28" height="216.21"/><rect class="cls-5" x="27.73" y="21.77" width="8.98" height="216.21"/><rect class="cls-6" x="216.03" y="21.77" width="8.98" height="216.21"/><rect class="cls-5" x="27.73" y="21.77" width="197.28" height="8.65"/><rect class="cls-7" x="27.73" y="21.77" width="8.98" height="8.65"/><rect class="cls-4" x="216.03" y="21.77" width="8.98" height="8.65"/><rect class="cls-4" x="27.73" y="7.35" width="197.28" height="14.41"/><rect class="cls-6" x="216.03" y="7.35" width="12.93" height="14.41"/><rect class="cls-5" x="23.78" y="7.35" width="12.93" height="14.41"/><path class="cls-6" d="M2327.06,1073H2294.2V918.75a19.38,19.38,0,0,1,4.53-12.63,15.62,15.62,0,0,1,11.9-5.69h0c6.14,0,11.49,3.76,14.31,9.32a19.86,19.86,0,0,1,2.12,9Z" transform="translate(-2184.26 -834.97)"/><rect class="cls-5" x="47.01" y="37.1" width="39.14" height="18.7"/><rect class="cls-5" x="106.8" y="37.1" width="39.14" height="18.7"/><rect class="cls-5" x="166.6" y="37.1" width="39.14" height="18.7"/><rect class="cls-5" x="47.01" y="72.94" width="16.22" height="40.83"/><rect class="cls-5" x="78.04" y="72.94" width="16.22" height="40.83"/><rect class="cls-5" x="158.49" y="72.94" width="16.22" height="40.83"/><rect class="cls-5" x="189.52" y="72.94" width="16.22" height="40.83"/><rect class="cls-5" x="47.01" y="127.17" width="16.22" height="40.83"/><rect class="cls-5" x="78.04" y="127.17" width="16.22" height="40.83"/><rect class="cls-5" x="158.49" y="127.17" width="16.22" height="40.83"/><rect class="cls-5" x="189.52" y="127.17" width="16.22" height="40.83"/><rect class="cls-5" x="47.01" y="181.39" width="16.22" height="30.23"/><rect class="cls-5" x="78.04" y="181.39" width="16.22" height="30.23"/><rect class="cls-5" x="158.49" y="181.39" width="16.22" height="30.23"/><rect class="cls-5" x="189.52" y="181.39" width="16.22" height="30.23"/><rect class="cls-1" x="160.17" y="129.04" width="12.86" height="37.09"/><rect class="cls-1" x="168.27" y="38.97" width="35.79" height="14.96"/><rect class="cls-1" x="160.17" y="74.81" width="12.86" height="37.09"/><rect class="cls-1" x="191.2" y="183.26" width="12.86" height="26.49"/><rect class="cls-1" x="160.17" y="183.26" width="12.86" height="26.49"/><rect class="cls-1" x="191.2" y="74.81" width="12.86" height="37.09"/><rect class="cls-1" x="191.2" y="129.04" width="12.86" height="37.09"/><rect class="cls-1" x="48.69" y="74.81" width="12.86" height="37.09"/><rect class="cls-1" x="48.69" y="129.04" width="12.86" height="37.09"/><rect class="cls-1" x="48.69" y="183.26" width="12.86" height="26.49"/><rect class="cls-1" x="79.72" y="74.81" width="12.86" height="37.09"/><rect class="cls-1" x="79.72" y="183.26" width="12.86" height="26.49"/><rect class="cls-1" x="79.72" y="129.04" width="12.86" height="37.09"/><rect class="cls-1" x="108.48" y="38.97" width="35.78" height="14.96"/><rect class="cls-1" x="48.69" y="38.97" width="35.79" height="14.96"/><path class="cls-8" d="M2236.59,1018.23l-3.65,2.35v-2.35Zm-3.65-25.73v4.68l12.86-8.28v-4.68Zm0-46v.33h6.77l6.09-3.92v-4.68Zm124.34.33v-3.63l-5.63,3.63ZM2264,1000.61l12.86-8.28v-4.67L2264,995.93Zm-23.8-36.6-7.23,4.65v10l12.86-8.28V964Zm23.8,8.51v4.68l12.86-8.27v-4.68Zm80.45-28.36v2.71h3.06l9.8-6.31v-4.68Zm-67.59,56.93V995l-9.43,6.07Zm98.62-59.57,12.86-8.28v-10l-12.86,8.28Zm-103.83,76.71h-7.27l-.38.25v4.68Zm72.8-51.53v4.68l11.46-7.37h-7.27Zm-97.37-92.76L2232.94,883v5.88h6.36l23.24-15Zm81.47,3.89v-3.89h-9.44l-23.24,15h15.49Zm15.9,112.39v4.67l12.86-8.27v-4.68Zm-77.42,54.5,9.83-6.33v-4.67L2264,1042v2.73Zm-34.06-1.59,12.86-8.28v-4.68l-12.86,8.28Zm142.51.18,12.86-8.27v-4.68l-12.86,8.28Zm0-119.13v4.68l12.86-8.27v-4.68Zm.34,94.05-.34.22v10l12.86-8.27v-1.92Zm9.35-54.22-9.69,6.23v4.68l12.86-8.27V964Zm-9.69,28.67v4.68l12.86-8.28v-4.67Zm0-45.95v.14h7.06l5.8-3.74v-4.68Zm-31-26v4.68l12.86-8.28v-4.68Zm-93.31-31.85h7.27l10.35-6.66v-4.68Zm101.42-14.64.49-.32h-.49Zm19.83,14.64,15.95-10.27v-4.69h-8.2l-23.24,15ZM2264,919.37l12.86-8.27v-1.32H2264Zm0,7.2v4.68l12.86-8.28v-4.68Zm2.83,20.3h10v-6.46Zm55.71-58h6V885ZM2245.8,1025v-6.73h-5l-7.82,5v10Zm104.33,19.76,7.15-4.6v-10l-12.86,8.28v6.29ZM2232.94,939.35l12.86-8.28v-10l-12.86,8.28Z" transform="translate(-2184.26 -834.97)"/><rect class="cls-4" x="116.09" y="84.4" width="2.34" height="153.1"/><rect class="cls-4" x="125.2" y="84.4" width="2.34" height="153.1"/><rect class="cls-4" x="134.31" y="84.4" width="2.34" height="153.1"/><path class="cls-9" d="M2434.7,1079.9H2186.56a2.17,2.17,0,0,1-1.63-.75,2.67,2.67,0,0,1-.67-1.81v-7.68a2.67,2.67,0,0,1,.67-1.81,2.17,2.17,0,0,1,1.63-.75H2434.7a2.14,2.14,0,0,1,1.48.6,2.68,2.68,0,0,1,.82,2v7.68a2.6,2.6,0,0,1-1.29,2.3A2.08,2.08,0,0,1,2434.7,1079.9Z" transform="translate(-2184.26 -834.97)"/><path class="cls-10" d="M2434.7,1072.23H2186.56a2.15,2.15,0,0,1-1.47-.59,2.68,2.68,0,0,1-.83-2h0a2.67,2.67,0,0,1,.67-1.81,2.17,2.17,0,0,1,1.63-.75H2434.7a2.14,2.14,0,0,1,1.48.6,2.68,2.68,0,0,1,.82,2h0a2.72,2.72,0,0,1-.34,1.34A2.25,2.25,0,0,1,2434.7,1072.23Z" transform="translate(-2184.26 -834.97)"/></svg>