<?xml version="1.0" encoding="utf-8"?>
<!-- Generator: Adobe Illustrator 25.0.1, SVG Export Plug-In . SVG Version: 6.00 Build 0)  -->
<svg version="1.1" id="Réteg_1" xmlns="http://www.w3.org/2000/svg" xmlns:xlink="http://www.w3.org/1999/xlink" x="0px" y="0px"
	 viewBox="0 0 480 480" style="enable-background:new 0 0 480 480;" xml:space="preserve">
<style type="text/css">
	.st0{fill:#F6BD60;}
</style>
<g id="XMLID_1_">
	<g>
		<path class="st0" d="M320,128.2c2.9,2.9,2.9,7.7,0,10.6l-95.9,95.9c-2.9,2.9-2.9,7.7,0,10.6l95.9,95.9c2.9,2.9,2.9,7.7,0,10.6
			l-21.5,21.5c-2.9,2.9-7.7,2.9-10.6,0l-128-128c-2.9-2.9-2.9-7.7,0-10.6l128-128c2.9-2.9,7.7-2.9,10.6,0L320,128.2z"/>
		<path class="st0" d="M341.2,320c14.6,14.6,14.6,38.4,0,53l-21.5,21.5c-14.7,14.6-38.4,14.6-53,0l-128-128
			c-14.6-14.6-14.6-38.4,0-53l128-128c14.6-14.7,38.4-14.7,53,0l21.5,21.5c14.6,14.6,14.6,38.4,0,53l-80,80L341.2,320z M320,138.8
			c2.9-2.9,2.9-7.7,0-10.6l-21.5-21.5c-2.9-2.9-7.7-2.9-10.6,0l-128,128c-2.9,2.9-2.9,7.7,0,10.6l128,128c2.9,2.9,7.7,2.9,10.6,0
			l21.5-21.5c2.9-2.9,2.9-7.7,0-10.6l-95.9-95.9c-2.9-2.9-2.9-7.7,0-10.6L320,138.8z"/>
	</g>
	<g>
	</g>
</g>
</svg>
