<svg xmlns="http://www.w3.org/2000/svg"  viewBox="0 0 64 64" width="480px" height="480px"><path d="M35.564,52.6L18.502,35.535c-1.952-1.953-1.952-5.118,0-7.07L35.564,11.4c1.953-1.953,5.119-1.953,7.071,0l2.861,2.861	c1.953,1.953,1.953,5.118,0,7.071L34.829,32l10.668,10.668c1.953,1.953,1.953,5.118,0,7.071L42.635,52.6	C40.682,54.553,37.516,54.553,35.564,52.6z M42.668,45.496L29.88,32.707c-0.391-0.391-0.391-1.024,0-1.414l12.789-12.789	c0.391-0.391,0.391-1.024,0-1.414l-2.862-2.861c-0.391-0.39-1.024-0.39-1.414,0L21.331,31.293c-0.39,0.391-0.39,1.024,0,1.414	l17.062,17.064c0.39,0.391,1.024,0.391,1.414,0l2.862-2.861C43.059,46.52,43.059,45.886,42.668,45.496z"/></svg>