<svg xmlns="http://www.w3.org/2000/svg"  viewBox="0 0 64 64" width="480px" height="480px"><path d="M21.364,52.6l-2.861-2.861c-1.953-1.953-1.953-5.118,0-7.071L29.17,32L18.502,21.332c-1.953-1.953-1.953-5.118,0-7.071	l2.861-2.861c1.953-1.953,5.119-1.953,7.071,0l17.062,17.064c1.952,1.953,1.952,5.118,0,7.07L28.435,52.6	C26.482,54.553,23.316,54.553,21.364,52.6z M21.33,46.91l2.862,2.861c0.391,0.39,1.024,0.39,1.414,0l17.062-17.064	c0.39-0.391,0.39-1.024,0-1.414L25.606,14.229c-0.39-0.391-1.024-0.391-1.414,0L21.33,17.09c-0.391,0.391-0.391,1.024,0,1.414	l12.789,12.789c0.391,0.391,0.391,1.024,0,1.414L21.33,45.496C20.94,45.886,20.94,46.52,21.33,46.91z"/></svg>