<svg id="Réteg_1" data-name="Réteg 1" xmlns="http://www.w3.org/2000/svg" viewBox="0 0 307.02 294.72"><defs><style>.cls-1{fill:#fff;stroke:#009f08;}.cls-1,.cls-3,.cls-4,.cls-5{stroke-linecap:round;stroke-linejoin:round;}.cls-2,.cls-3,.cls-5{fill:#009f08;}.cls-2,.cls-3,.cls-4,.cls-5,.cls-6{fill-rule:evenodd;}.cls-3,.cls-4{stroke:#e5e5e5;stroke-width:0.44px;}.cls-4{fill:#cdff15;}.cls-5,.cls-6{stroke:#fff;stroke-width:2px;}.cls-6{fill:none;stroke-miterlimit:10;}</style></defs><circle class="cls-1" cx="173.1" cy="133.92" r="133.42"/><polyline class="cls-2" points="177.63 217.84 177.14 219.27 176.96 225.57 175.69 228.47 171.05 230.17 169.05 234.18 169.13 240.04 172.76 242.85 178.24 246.23 184.23 252.26 188.15 256.95 191.26 257.13 191.55 260.58 190.03 264.06 190.61 266.45 190.94 266.71 204.38 263.99 217.34 260 229.83 254.65 244.55 246.33 257.6 236.56 257.83 232.6 260.05 226.71 264.13 220.82 266.42 217.34 263.03 214.73 261.22 214.48 256.87 216.43 248.36 218.4 241.38 219.35 235.65 212.55 226.59 212.72 219.89 211.53 212.1 208.2 205.92 209.64 197.42 209.79 194.08 211.43 187.86 209.2 183.74 211.12 180.2 214.08 178.19 216.19 175.01 215.5 170.1 215.06 165.94 211.96 165.16 209.82 166.38 206.1 166.61 202.95 163.75 200.84 159.37 199.62 154.46 199.69 153.89 197.3 155.42 194.34 156.16 189.29 153.26 187.51 149.41 188.88 147.89 191.56 145.08 192.4 141.44 191.13 136.47 187.02 135.92 181.73 136.61 176.93 140.7 171.27 146.1 170.12 149.47 170.58 151.79 171.89 154.11 171.58 156.7 170.19 161.08 170.62 165.22 172.42 168.14 176.88 170.49 180.28 173.07 179.46 172.25 175.22 170.65 171.77 171.37 167.53 173.38 164.03 178.48 160.25 181.55 157.54 181.77 152.51 183.78 146.88 186.3 143.09 188.1 142.56 189.13 139.89 191.63 135.86 193.95 134.76 196.28 136.03 198.07 133.9 201.92 131.69 204.73 130.05 203.66 127.41 199.78 128.03 197.99 127.5 197.71 124.63 195.12 123.87 192.57 126 189.75 127.41 189.46 126.1 192.25 123.11 196.86 120.64 199.73 120.33 203.59 118.65 204.83 115.72 203.49 112 199.58 107.31 192.53 101.86 188.38 101.4 186.06 100.93 183.7 97.8 176.72 94.75 174.13 95.57 174.18 100.1 174.49 105.93 176.34 108.01 174.82 110.41 174.13 115.48 173.4 120.01 170.52 117.39 168.44 113.98 168.13 110.01 164.75 108.48 159.56 107.24 157.7 104.38 158.16 98.26 161.21 93.41 166.07 88.57 170.43 85.28 172.42 82.61 170.08 80 167 81.12 163.65 80.11 163.07 76.65 162.77 73.47 160.45 73.51 159.74 78.07 157.68 79.96 155.9 78.64 155.81 73.07 154.49 69.43 151.6 67.86 149.27 64.18 145.4 64.53 143.09 66.7 145.96 69.27 146.53 72.44 149.9 75.05 149.43 78.51 138.99 70.21 133.54 65.27 130.65 61.07 130.62 57.34 129.51 52.35 127.15 51.3 122.78 51.38 120.97 52.47 118.63 52 116.07 52.26 115.09 54.96 114.07 56.83 109.13 55.88 106.07 58.03 104.32 61.8 103.31 64.99 100.48 64.53 97.59 62.17 98.67 65.62 103.11 67.66 108.02 69.44 112.17 71.76 113.77 76.21 114.08 81.25 112.38 88.72 110.14 96.44 109.69 102.56 109.75 106.03 110.57 109.7 107.51 113.48 104.72 118.34 101.97 124.73 100.76 132.46 99.85 143.35 100.94 147.31 103.09 154.69 104.69 160.49 107.11 167.38 110.22 170.77 112.84 171.77 110.22 168.63 108.87 164.68 108.06 160.17 107.24 156.21 109.27 155.67 110.35 158.82 112.24 166.49 116.21 174.65 117.32 179.12 116.28 182.07 118.69 185.74 123.36 188.04 130.4 194.56 134.78 196.34 141.55 198.58 149.3 201.9 153.22 204.51 156.86 207.84 159.78 214.44 165.47 216.72 169.13 217.99 173.25 217.41 177.63 217.84"/><polyline class="cls-3" points="163.08 187.86 166.17 186.46 171.09 187.7 176.78 189.47 181.16 189.91 185.06 191.72 184.06 193.83 179.42 194.47 175.54 191.61 170.85 189.28 163.08 187.86"/><polyline class="cls-3" points="186.36 193.01 186.17 195.13 189.53 196.43 192.63 196.89 198.03 196 194.38 193.91 194.63 192.59 192.54 191.83 186.36 193.01"/><polyline class="cls-2" points="205.6 115.44 207.43 117.28 210.83 120.11 214.45 123.22 215.51 125.58 209.82 125.72 206.19 121.54 204.87 118.62 205.6 115.44"/><polyline class="cls-2" points="181.35 93.88 177.98 92.86 173.84 92.12 177.94 88.89 178.14 84.35 176.28 81.48 171.37 79.97 167.98 78.44 164.6 73.97 167.39 71.26 171.29 72.29 176.22 74.87 180.9 77.41 182.75 81.62 184.32 82.91 188.19 84.69 190.58 88.92 188.52 91.31 187.82 94.81 184.75 95.37 181.35 93.88"/><polyline class="cls-2" points="200.15 89.79 204.81 92.89 206.9 93.94 211.54 92.52 217.16 90.55 211.73 88.53 209.9 85.62 210.36 80.56 210.76 71.83 213.83 68.85 213.79 64.09 208.83 59.13 203.62 55.24 197.37 53.22 192.21 49.87 186.25 49.71 181.62 51.38 179.32 54.36 176.72 54.67 176.49 52.54 172.86 52.59 168.51 54.53 169.29 57.45 167.3 62.54 169.42 65.68 173.53 68.26 175.3 61.85 177.31 59.43 178.7 63.9 182.3 67.56 185.68 69.09 190.91 73.22 195.35 77.41 196.46 85.37 199.58 87.14 200.15 89.79"/><polyline class="cls-2" points="217.69 67.98 218.28 72.48 219.82 74.87 222.67 76.12 226.26 71.83 227.73 66.46 224.62 64.15 221.26 65.27 219.75 67.39 217.69 67.98"/><polyline class="cls-2" points="272.43 46.04 274.27 50.54 274.07 55.01 275.13 58.72 278.78 61.05 278.53 63.99 275.46 65.06 273.4 64.87 270.61 66.23 276.3 68.81 275.55 71.2 270.38 71.27 270.94 74.21 272.25 77.86 272.34 82.13 274.7 86.05 276.53 89.75 279.41 92.37 278.13 94.2 277.64 96.09 276.66 100.12 273.59 102.55 268.67 99.45 268.38 96.52 265.47 93.94 265.45 90.21 267.97 87.49 267.7 83.56 263 82.3 260.69 82.35 259.13 79.71 259.58 73.59 256.15 67.02 252.76 64.69 251.67 60.51 250.8 54.67 246.63 48.34 245.53 43.59 242.15 42.34 238.55 40.26 236.44 38.98 235.16 40.35 237.02 42.43 233.95 44.86 236.78 45.6 239.93 47.96 243.31 51.35 247.48 53.66 243.36 55.59 242.1 58.28 238.46 57.53 234.08 55.23 230.62 49.43 228 47.37 222.07 44.3 217.63 41.98 214.52 37.52 218.08 35.35 224.52 34.17 223.74 31.25 221.15 30.5 220.38 32.1 215.96 32.19 216.71 29.24 213.87 28 212.04 25.36 206.83 21.99 199.02 16.55 197.45 17.4 195.98 19.27 192.63 20.39 190.52 19.39 186.65 18.65 181.51 19.04 178.94 20.66 173.54 21.55 168.63 20.82 165.25 19.57 164.73 16.93 159.53 16.75 157.5 18.67 152.09 19.04 147.18 20.17 147.22 23.08 144.66 24.7 139.25 25.33 137.21 26.97 138.01 29.61 135.69 31 129.25 31.9 128.77 34.29 128.56 37.23 126.5 38.56 122.93 42.37 120.36 45.05 117.06 47.78 112.94 48.63 113.97 47.04 115.97 43.83 115.42 41.95 112.11 42.03 110.27 39.4 108.67 36.75 111.22 33.81 114 31.38 116.33 31.06 118.39 27.05 117.8 22.56 120.88 21.16 125.22 18.98 125.45 13.95 123.08 11.81 120.75 11.06 132.78 6.65 142.88 3.76 152.68 1.81 164.97 0.38 175.9 0.1 188.69 0.96 204.58 3.73 220.11 8.54 230.68 13.2 241.62 19.11 250.85 25.28 259.5 31.94 267.11 39.27 272.21 44.77 272.43 46.04"/><polyline class="cls-3" points="242.42 62.25 240.1 63.35 241.14 65.7 243.54 69.37 244.32 72.01 245.42 75.96 249.08 79.09 251.63 79.31 250.59 76.96 247.42 74.1 247.16 72.47 250.29 73.79 253.69 75.56 256.77 76.58 256.75 73.93 256.87 73.66 256.97 73.38 257.04 73.1 257.04 72.82 257.06 72.26 257 71.71 256.88 71.2 256.8 70.8 256.71 70.58 256.68 70.45 254.62 69.19 248.13 66.39 245.27 65.08 242.42 62.25"/><polyline class="cls-2" points="281.33 56.44 281.1 59.95 282.18 63.9 281.15 66.05 279.37 66.09 280.94 68.72 284.09 72.86 284.39 78.47 281.57 77.73 279.74 78.03 279.31 84.38 279.64 89.94 278.89 92.61 279.18 97.4 277.67 100.09 276.72 103.54 278.29 108.3 280.94 114.61 280.74 119.14 280.59 128.45 281.73 136.88 283.88 143.75 287.3 151.39 291.75 156.36 296.95 157.6 299.96 152.73 302.02 149.55 304.83 148.25 305.51 139.68 305.6 131.75 305.27 123.61 304.27 114.04 302.15 102.8 299.55 93.2 296.6 84.68 292.92 76.2 289.15 68.68 284.57 61.14 281.33 56.44"/><path class="cls-4" d="M70.08,328.13" transform="translate(-110.9 -127.08)"/><path class="cls-5" d="M156.57,420.8c11.22-9.91,34.92-28.86,63.69-36.59a147.46,147.46,0,0,1,16.16-3.33c15.92-2.19,22.44,0,45.14.95,26.82,1.09,34.56-1.32,40.4-4.28,3.8-1.92,13.48-7,14.73-15.68,0-.1,0-.27.07-.48a14.94,14.94,0,0,0,0-3.33,9.67,9.67,0,0,0-2-4.27c-3.31-4-16.16.95-16.16.95-24.86,9.31-63,2.13-71.76.48-29.39-5.53-29.91-20-51.33-23.76-18-3.16-45,2.24-83.64,41.82Z" transform="translate(-110.9 -127.08)"/><path class="cls-2" d="M156,420.7c1.21,1.4,15.63-12.31,40.59-16.18,27.27-4.22,34,11.14,60.58,13.77,58.37,5.77,107-59.84,136.72-68.86,2-.6,10.51-3,13.74-9.83.26-.56,2.46-5.49.28-8.57-2.47-3.48-9.74-2.26-12.23-1.85-19.91,3.33-54.13,28.14-54.15,28.15-40.08,29.07-77.16-12.27-134.22,14.52C172.16,388.33,154.39,418.91,156,420.7Z" transform="translate(-110.9 -127.08)"/><path class="cls-6" d="M222.54,375.92c20.73-3.44,35.69-1.54,45.75,1,7,1.76,9.06,2.91,12.24,3.68,0,0,2.06.41,4.11.68,17.43,2.3,53.57-21.73,53.57-21.73,24.61-16.41,33.89-22.67,51.74-29,3.4-1.2,6.25-2.09,8.19-2.66" transform="translate(-110.9 -127.08)"/></svg>