<svg id="Réteg_1" data-name="Réteg 1" xmlns="http://www.w3.org/2000/svg" viewBox="0 0 53.79 54.25"><defs><style>.cls-1{fill:#fdfdfd;}.cls-2{fill:#dfe7f3;}.cls-3{fill:#dae3f2;}.cls-4{fill:#d7e0f0;}.cls-5{fill:#bdcde8;}.cls-6{fill:#fcfdfd;}.cls-7{fill:#fefefe;}.cls-8{fill:#bfcde7;}.cls-9{fill:#d8e1ef;}.cls-10{fill:#dbe4f3;}.cls-11{fill:#f1f4fa;}.cls-12{fill:#fcfcfd;}.cls-13{fill:#e3e9f6;}.cls-14{fill:#e5ebf5;}.cls-15{fill:#b9cae6;}.cls-16{fill:#cad8ec;}.cls-17{fill:#a3b7dd;}.cls-18{fill:#ccdaec;}</style></defs><path class="cls-1" d="M2544.85,789c0-.4-.08-.79-.08-1.19q0-12.6,0-25.22c0-.47,0-1,0-1.43a46.5,46.5,0,0,1,4.72-.14c1,.08,1.15.28.83,1.21a2.87,2.87,0,0,0-.74,2.31q0,11.16,0,22.3a2.79,2.79,0,0,1-.47,2.16Z" transform="translate(-2533.55 -734.73)"/><path class="cls-2" d="M2576.06,761.86c.06,9,.11,18.08,0,27.12h-4.31a2.61,2.61,0,0,1-.48-2q0-10.63,0-21.29c0-1.08,0-2.15-.08-3.22a1.09,1.09,0,0,1,.81-1.07C2573.38,761.09,2574.8,760.87,2576.06,761.86Z" transform="translate(-2533.55 -734.73)"/><path class="cls-3" d="M2549.16,789V763.93c0-.92.11-1.78,1.19-2.07a1.75,1.75,0,0,1,1.59-.26,2.24,2.24,0,0,1,1.48,2,9.65,9.65,0,0,1,.06,1.2v22.26A2.45,2.45,0,0,1,2553,789Z" transform="translate(-2533.55 -734.73)"/><path class="cls-4" d="M2559.24,789h-3.84a2.17,2.17,0,0,1-.47-1.68q0-11.38,0-22.78c0-1.14.14-2.25,1.29-2.9a3.22,3.22,0,0,1,1.92,0,2.71,2.71,0,0,1,1.56,2.73c.05,2,0,4.07,0,6.1q0,8.27,0,16.51A2.61,2.61,0,0,1,2559.24,789Z" transform="translate(-2533.55 -734.73)"/><path class="cls-5" d="M2571.47,762.35a6.1,6.1,0,0,1,.26,1.76q0,12.43,0,24.87h-3.84a2.18,2.18,0,0,1-.48-1.68q0-11.37,0-22.74a3.74,3.74,0,0,1,.25-1.52Q2569.54,760.25,2571.47,762.35Z" transform="translate(-2533.55 -734.73)"/><path class="cls-6" d="M2559.24,789c0-8.19,0-16.38,0-24.56a2.84,2.84,0,0,0-1.21-2.56c-.16-.18-.79-.12-.34-.59.74-.77,4.21-.29,4.85.64.08.62-.41,1.1-.44,1.69q0,11.61,0,23.22a2.77,2.77,0,0,1-.47,2.16Z" transform="translate(-2533.55 -734.73)"/><path class="cls-7" d="M2556.35,761.86a2.85,2.85,0,0,0-1,2.45q0,12.33,0,24.67H2553q0-12.37,0-24.74a2.28,2.28,0,0,0-1.2-2.38c-.25-.5.11-.73.46-.74a12.08,12.08,0,0,1,3.79.28A.4.4,0,0,1,2556.35,761.86Z" transform="translate(-2533.55 -734.73)"/><path class="cls-2" d="M2568.12,762.83a3,3,0,0,0-.24,1.63V789h-2.4a2.59,2.59,0,0,1-.48-2V765a15.48,15.48,0,0,0-.11-2.26c.26-1.24.85-1.65,2.05-1.45C2567.93,761.42,2568.24,761.84,2568.12,762.83Z" transform="translate(-2533.55 -734.73)"/><path class="cls-8" d="M2565.24,762.59a2.79,2.79,0,0,1,.24,1.51V789h-1.92a2.18,2.18,0,0,1-.48-1.68c0-8,0-16.07,0-24.11.18-1.46.67-1.87,1.55-1.32A2.2,2.2,0,0,1,2565.24,762.59Z" transform="translate(-2533.55 -734.73)"/><path class="cls-9" d="M2563.56,762.83V789h-1.92q0-12.09,0-24.19c0-.5-.17-1,.22-1.49.35-.07.42-.42.65-.61C2562.93,762.36,2563.27,762.35,2563.56,762.83Z" transform="translate(-2533.55 -734.73)"/><path class="cls-7" d="M2534.54,746.27c-.82-.28-1-.94-1-1.7,0-1.55,0-3.1,0-4.65s.54-2,2-2c.89,0,1.22-.22,1.12-1.12s0-1.53.94-1.85a2.45,2.45,0,0,1,1.17-.1h31.49c1.48,0,1.67.11,1.8,1.57.06.73.37.91,1,1,2.46.24,2.86.7,2.87,3.15a32.49,32.49,0,0,1-.07,4.07c-.2,1.71-.88,2.3-2.6,2.28-.64,0-1.27-.08-1.91,0a16.18,16.18,0,0,0-2.51-.13h-28.5C2538.46,746.75,2536.52,746.24,2534.54,746.27Z" transform="translate(-2533.55 -734.73)"/><path class="cls-10" d="M2571.47,746.51c4.26,0,4.05.2,4.09-4.12v-2.28c0-1.81-.23-2.06-2-2.21-.36,0-.72,0-1.08,0-.66,0-1.41.23-.85-1s-.1-1.86-1.42-1.86l-32.56,0c.41-.37.91-.23,1.37-.23l42.77,0c1.93,0,2.32.34,2.38,2.26,0,.68.22.88.9.9,1.88,0,2.25.44,2.26,2.27,0,1.4,0,2.8,0,4.19,0,1.56-.53,2.07-2.09,2.1h-1.8c.76.63,1.32,1.08,1.46,1.81a2.32,2.32,0,0,1-2.39,2.75c-1.11.06-2.23,0-3.35,0a6,6,0,0,1-2.78.49c-2.38-.07-4.76.08-7.14-.08-5.7.17-11.39,0-17.09.08-2.67,0-5.34,0-8,0a4.36,4.36,0,0,1-2.19-.47c-1.45-.12-2.92.24-4.35-.22a.75.75,0,0,1,.89-.62c2.24.37,4.45-.1,6.68-.1,8.58,0,17.15-.06,25.72,0,1.39,0,2.24-.93,3.54-1.42a13.74,13.74,0,0,1-2.28-1.36C2571.82,747.18,2571.42,747,2571.47,746.51Z" transform="translate(-2533.55 -734.73)"/><path class="cls-11" d="M2571.47,746.51c1.4.69,2.45,2,4.2,2.16a11,11,0,0,0-3.17,1.71c-.73.59-1.53.19-2.29.2-6,0-12,0-18,0-2.6,0-5.19,0-7.79,0-1.67,0-3.32.29-5,.25-.62,0-1.26-.71-1.87,0-2-.68-2.18-2.51-.42-4.26-.86-.35-1.82.16-2.63-.34h35.3A3,3,0,0,1,2571.47,746.51Z" transform="translate(-2533.55 -734.73)"/><path class="cls-12" d="M2544.54,758.06c-.52,0-1,0-1.55,0a2.12,2.12,0,0,1-2.12-1.45,2,2,0,0,1,.58-2.46,5.64,5.64,0,0,1,2.24-.19c7.24,0,14.47,0,21.71,0,.48,0,.95.11,1.43.1.9,0,1.69.11,2.05,1.08a2.48,2.48,0,0,1-.7,2.72,3.24,3.24,0,0,1-.46.37,11.67,11.67,0,0,1-3.95.24c-5.81.06-11.62,0-17.43,0A2.4,2.4,0,0,1,2544.54,758.06Z" transform="translate(-2533.55 -734.73)"/><path class="cls-13" d="M2567.64,758c.34-.6,1-1,1-1.84,0-1.48-.22-1.76-1.71-1.76h-13.43c-3.56,0-7.11.05-10.67.05a6.67,6.67,0,0,1-1.36-.31,2.33,2.33,0,0,1,2-.69,1.71,1.71,0,0,1,1.32-.48c7,0,14.05-.06,21.07,0a2,2,0,0,1,.35.05,30.7,30.7,0,0,0,7.4.95c1.58-.08,3.17.13,4.75.11a1.63,1.63,0,0,1,1.79,1.25c.07,1.8-.71,2.66-2.48,2.69-.43,0-.86,0-1.3,0a3.7,3.7,0,0,1-1.93.46c-1.7,0-3.4,0-5.1,0A2,2,0,0,1,2567.64,758Z" transform="translate(-2533.55 -734.73)"/><path class="cls-14" d="M2544.54,758.06l16.75,0h2.52a18.78,18.78,0,0,1,.13,2.7c-.07,1-.57,1.43-1.57,1.37a.83.83,0,0,0-.86-.69c-1.15,0-2.31-.07-3.47,0-.5,0,0,.29,0,.45h-1.7c-1.36-.48-2.81-.1-4.2-.42-.2-.05-.3.22-.34.42h-1.46c.21-.56-.2-.47-.5-.47a20.64,20.64,0,0,0-3.86.11c-.61.12-.75-.37-1.16-.36C2544.6,760.13,2545,759.05,2544.54,758.06Z" transform="translate(-2533.55 -734.73)"/><path class="cls-15" d="M2566.43,753.48h-23c-.1-1-1-1.58-1.48-2.39h27.38a3.15,3.15,0,0,1-1.58,2.49C2567.3,753.54,2566.85,753.7,2566.43,753.48Z" transform="translate(-2533.55 -734.73)"/><path class="cls-16" d="M2562.37,762.11c1.26-.44,1.49-.93,1.1-2.72-.13-.56-.16-1,.34-1.35h3.83l8.68,0c-.52,1.24,0,2.56-.26,3.81a19.21,19.21,0,0,0-3.55-.24c-.53,0-1,.09-1,.73-1.24-.73-2.39-.78-3.35.48,0-1.12-.83-1.16-1.64-1.2s-1.29,0-1.24,1c-.25-.13-.5-.25-.73-.4s-.51-.41-.85-.22-.08.57-.1.86c-.57-.36-.83,0-1.07.44-.16.32-.38.77-.62,0C2561.8,762.8,2562.13,762.48,2562.37,762.11Z" transform="translate(-2533.55 -734.73)"/><path class="cls-17" d="M2567.88,753.47c.09-1,1.13-1.48,1.44-2.38l9.83,0a8.29,8.29,0,0,0-1.86,2.38,1.3,1.3,0,0,1-1.16.48,42,42,0,0,1-7.69-.27A1.6,1.6,0,0,1,2567.88,753.47Z" transform="translate(-2533.55 -734.73)"/><path class="cls-18" d="M2567.88,753.47l9.41,0c1.94.19,2.48.57,2.81,1.95-.79-1.42-2.16-.71-3.27-.85-2.57-.34-5.22.34-7.75-.55-.86-.31-1.81-.09-2.65-.51Z" transform="translate(-2533.55 -734.73)"/></svg>