<svg xmlns="http://www.w3.org/2000/svg" xmlns:xlink="http://www.w3.org/1999/xlink" viewBox="0 0 74.26 105.89"><defs><style>.cls-1{isolation:isolate;}.cls-2{fill:url(#linear-gradient);}.cls-3{fill:#ecf7f9;}.cls-4{fill:url(#linear-gradient-2);}.cls-5{fill:#7de5f6;}.cls-6{fill:#a9eafa;}.cls-7,.cls-8{fill:#47b2ff;}.cls-7,.cls-9{mix-blend-mode:screen;}.cls-8{mix-blend-mode:multiply;}.cls-9{opacity:0.7;fill:url(#linear-gradient-3);}</style><linearGradient id="linear-gradient" x1="2158.34" y1="823.21" x2="2191.85" y2="775.9" gradientUnits="userSpaceOnUse"><stop offset="0" stop-color="#02f5fb"/><stop offset="1" stop-color="#0456de"/></linearGradient><linearGradient id="linear-gradient-2" x1="2180.13" y1="848.25" x2="2180.13" y2="783.14" xlink:href="#linear-gradient"/><linearGradient id="linear-gradient-3" x1="2175.06" y1="821.19" x2="2186.78" y2="833.12" gradientUnits="userSpaceOnUse"><stop offset="0"/><stop offset="0.22" stop-color="#3c6e77"/><stop offset="0.4" stop-color="#6bc4d4"/><stop offset="0.48" stop-color="#7de6f9"/><stop offset="0.53" stop-color="#7ae1f3"/><stop offset="0.59" stop-color="#72d2e3"/><stop offset="0.67" stop-color="#64b9c8"/><stop offset="0.75" stop-color="#5196a2"/><stop offset="0.83" stop-color="#396972"/><stop offset="0.92" stop-color="#1c3438"/><stop offset="1"/></linearGradient></defs><g class="cls-1"><g id="Réteg_1" data-name="Réteg 1"><path class="cls-2" d="M2177.82,792.2c-7.49,12.14-1.51,28.12-9.53,42.62s-15.27,13.63-21,13-13.09-6.28-1.37-10.82,15.35-20.12,16.78-30.18,1-25.31,11.38-27.37S2180.35,788.08,2177.82,792.2Z" transform="translate(-2139.74 -742.35)"/><path class="cls-3" d="M2181.45,821.19c-1.92-8.55,1.91-13.8,4.45-13.85,3.31-.07,2.95-2.54.69-2.7s.65-2.71-2-2.06.83-3.73-2.84-1.57S2176.69,809.34,2181.45,821.19Z" transform="translate(-2139.74 -742.35)"/><path class="cls-4" d="M2147.08,847.77c14.36,2.73,16.56-7.54,28.48-5.81s13.9,11.46,32,2.64c13.56-7.73,3.42-15.52-9.18-12s-19.18-15-19.73-24.23,3-16.55,12.81-14.28-.41-17-15.76-9.08-.81,37.72-15.41,51.49C2155.86,840.72,2142.92,847,2147.08,847.77Z" transform="translate(-2139.74 -742.35)"/><path class="cls-3" d="M2204,776.56c-2.57-9.73-12.33-2.32-9.21-13.08s-3.63-6-12.06,1.88-9.38,6.07-8.5.87.31-5.9-3.76,1.36c-4.27,7.58-6,5.94-6.61,3.84-.47-1.7-.93-4.6-1.55-1.51s-1.23,1.78-1.71-1-1.61-5.78-2.74-4.86-1.34,2.65,1.61,10.39,2.09,13,.52,9.68-2.51-5.2-1,5,.34,10.75-.47,9.9-1-1.15-.7,1.62c-1.71-4.17-2.13-1.3-1.16.49s3,8.74,1.35,18.1a33.37,33.37,0,0,1-1.74,6.22c-2.26,5.72-5.9,9.41-10,11.36,13.29-3.85,9.08-9.29,12.5-11.34s4.21-4.6,2.88-5.3-1.2-.66,1.81-9.36-.31-25.75,9.35-28.4c7.41-2,2.13,6.41,2.27,8.26s2.51-1.16-.14,4.72-1.71,6.24-1.8,13.89a139.34,139.34,0,0,1-1.3,15.79c1.6-5.49,2.71-15.16,2.41-16-.95-2.62,1.68-15.62,4.15-14.38s3.94-8.23,7.95-2.33,4.86.81,7.26,3.73,2,9.1,4,6.77a5.08,5.08,0,0,0,1.37-3.48,21.55,21.55,0,0,1,.58-4.21c1.06-4.32-1.61-11,1.34-7.78S2206.59,786.3,2204,776.56Zm-45.54-8.31c-.73-2.66.05-3.19.8-.54C2160.21,771,2159.21,770.92,2158.48,768.25Zm38.69,27.09a9.23,9.23,0,0,0,.43-3.75c.77,3.87,1.1,6.79,0,7.14S2196.48,797.71,2197.17,795.34Zm-11-30.18c7.34-5.53,8.09-3.8,6-1.27s2,1.44-1,4-.5-4.33-4.48-1.51S2181.42,768.73,2186.17,765.16Zm-16.58,7c1.09-1.18,1.41-6,1.44-2s2.19-7,2.14-1.72-3,5-4.72,8S2167.73,774.16,2169.59,772.19Zm-5.82,1.4c.21,1.15.37,2.23.8,1.69s.55,0,1,1.77.23,4.32-.43,3.93-.78-4.47-1-1.81-.41-1.62-1.3-4.25S2163.43,771.67,2163.77,773.59ZM2159.3,786c-.21-1.77.63-1.52.63,0S2159.5,787.8,2159.3,786Zm40.78-7c.89-4.25-2.12-5.65-2.46-5.8,4.68.73,5.94,3.61,5.94,9.95C2203.56,789.17,2198.68,785.69,2200.08,779Z" transform="translate(-2139.74 -742.35)"/><path class="cls-5" d="M2162.52,785.06c-.1-3,.34-3.32,1-1s1.21,4.68.41,6.38-1.07-.25-.87-2.38S2162.57,786.81,2162.52,785.06Z" transform="translate(-2139.74 -742.35)"/><path class="cls-5" d="M2160.8,793.75c.37-1.55-.59-3.83.19-4.51s1.55,1.73.91,3.6-.19,3.11.6,1.12,1.54,0,.9,2.2-1.55,3-1.59,1.34S2159.64,798.69,2160.8,793.75Z" transform="translate(-2139.74 -742.35)"/><path class="cls-5" d="M2159.62,808.57c.28-4.71-1.19-6.46,0-7.18s.13,4.36,1.46,3.59,1,.45.27,3.88-1.41,7.24-1.78,5.19S2159.41,812,2159.62,808.57Z" transform="translate(-2139.74 -742.35)"/><path class="cls-5" d="M2161.6,800.41c-.69-2.26,1.81.58,1.42,2.06S2161.92,801.44,2161.6,800.41Z" transform="translate(-2139.74 -742.35)"/><path class="cls-5" d="M2173.33,776.88c8.6-5.5,3.83.38,6.85-.37s5.64-2.55,4.43.37.36,2,4.3,1,5.76,2.57,2.81,4.25-2.19,2.43-1.4,2.84,1,3.11-2.5,1.06-8.67,5.88-7.27,1.79-1.5.86-1.19-2,1.39-7.08-3.25-7.15S2170.63,778.61,2173.33,776.88Z" transform="translate(-2139.74 -742.35)"/><path class="cls-3" d="M2201.06,798.72c1.05,5.12-2.66,9.33,0,9.59C2202.86,808.49,2203.35,802.11,2201.06,798.72Z" transform="translate(-2139.74 -742.35)"/><path class="cls-3" d="M2197.59,767.13c9.5-3.6,13.87,6.2,11.15,7.29C2205.86,775.57,2207.28,764.83,2197.59,767.13Z" transform="translate(-2139.74 -742.35)"/><path class="cls-3" d="M2201.66,760.86c.89-4.11,2.39-5.35,3-4.62C2205.38,757.21,2203.44,760.07,2201.66,760.86Z" transform="translate(-2139.74 -742.35)"/><path class="cls-3" d="M2210.27,777.41c.54-.79.5,1,0,1.48S2209.72,778.2,2210.27,777.41Z" transform="translate(-2139.74 -742.35)"/><path class="cls-3" d="M2208.71,789.09c.6-.46,1.26,2.89,0,3.43S2208.12,789.56,2208.71,789.09Z" transform="translate(-2139.74 -742.35)"/><path class="cls-3" d="M2206.91,781.05c.56-.45.37,1.48,0,1.48S2206.2,781.63,2206.91,781.05Z" transform="translate(-2139.74 -742.35)"/><path class="cls-3" d="M2202.6,794c.47-.38.51.9,0,1.3S2202.06,794.4,2202.6,794Z" transform="translate(-2139.74 -742.35)"/><path class="cls-3" d="M2190.73,754.22c6.3-5.89,6.41-13.46,4.32-11.57S2195,749.52,2190.73,754.22Z" transform="translate(-2139.74 -742.35)"/><path class="cls-3" d="M2184,760.07c3.25-1.87,6.54-12.42,4.52-11.78s-.48,4.41-2.29,5.87-.27-3.43-2.23-2.91c-.82.22.28,2.43-.82,3.89s-1.69.08-2.34,3.31-5.26,6.5-2.83,6.7C2179.94,765.31,2181,761.8,2184,760.07Z" transform="translate(-2139.74 -742.35)"/><path class="cls-3" d="M2178,757.63c0-3-1.2-3.93-1-1.58s-.66,2.66,0,3.42S2178,759.09,2178,757.63Z" transform="translate(-2139.74 -742.35)"/><path class="cls-6" d="M2194.81,795c-1-7.5-4.71,1.37-4.39-3.45s-4.61-6.57-8.58-2-1.78-3.45-3.43-1.15,1.32-9.67-2-7.86-4.34-5.12-8,1.51-3.89,13-4.44,18.1c-.26,2.5-.91,6.59-1.73,10.55a86.85,86.85,0,0,0,2.74-13.43c1.09-7.32,1.74-13.45,7.79-15.11,7.4-2,2.12,6.7,2.26,8.55s2.51-1.16-.14,4.72-1.71,6.24-1.8,13.89a139.34,139.34,0,0,1-1.3,15.79c1.6-5.49,2.71-15.16,2.41-16-.95-2.62,1.68-15.62,4.15-14.38s3.94-8.23,7.95-2.33,4.86.81,7.26,3.73,2,9.1,4,6.77a5.08,5.08,0,0,0,1.37-3.48C2197.62,802.24,2195.76,801.87,2194.81,795Z" transform="translate(-2139.74 -742.35)"/><path class="cls-7" d="M2179.55,796.49a32.17,32.17,0,0,0-2.56,10.68,29.61,29.61,0,0,0,1.54,11,31.83,31.83,0,0,0,4.61,8.79,24.81,24.81,0,0,0,3,3.35,18.62,18.62,0,0,0,3.31,2.56,17.34,17.34,0,0,1-6.63-5.24,28.56,28.56,0,0,1-4.89-8.93,29.06,29.06,0,0,1-1.45-11.58,28.7,28.7,0,0,1,1.07-5.68A27.89,27.89,0,0,1,2179.55,796.49Z" transform="translate(-2139.74 -742.35)"/><path class="cls-8" d="M2176.17,819.85a32.07,32.07,0,0,0,5,8.25,18.2,18.2,0,0,0,6.46,4.85,17,17,0,0,0,7.15,1.35,11,11,0,0,0,1.81-.1l.91-.09.9-.17a35.62,35.62,0,0,0,3.62-.82,25.46,25.46,0,0,1-3.57,1.37l-.9.25-.92.17a12.8,12.8,0,0,1-1.83.26,14.85,14.85,0,0,1-7.36-1.13,17.22,17.22,0,0,1-6.6-5.26,26.11,26.11,0,0,1-2.64-4.09c-.4-.74-.73-1.57-1.09-2.34S2176.48,820.69,2176.17,819.85Z" transform="translate(-2139.74 -742.35)"/><path class="cls-8" d="M2176.63,798.51a52.57,52.57,0,0,0-.62,12.94,34.94,34.94,0,0,0,3.18,11.86,20.46,20.46,0,0,1-2.59-5.28,28.78,28.78,0,0,1-1.3-6.42A35.28,35.28,0,0,1,2176.63,798.51Z" transform="translate(-2139.74 -742.35)"/><path class="cls-8" d="M2174.35,817a41.91,41.91,0,0,0,1.88,6,28,28,0,0,0,1.21,2.72c.2.46.47.83.7,1.25s.47.82.73,1.19a18,18,0,0,0,7.24,6.46,19.3,19.3,0,0,0,8.33,1.84l2.13,0c.7-.06,1.41-.17,2.12-.25l1.06-.11,1.06-.22c.71-.14,1.42-.28,2.13-.4a28.25,28.25,0,0,1-8.49,1.89,18.27,18.27,0,0,1-8.55-1.63,18.47,18.47,0,0,1-7.42-6.92A33.36,33.36,0,0,1,2174.35,817Z" transform="translate(-2139.74 -742.35)"/><path class="cls-7" d="M2175,787.4a16.84,16.84,0,0,0-2.63,5.81,29.6,29.6,0,0,0-.85,7c-.1,4.79.29,9.64.15,14.56a36.75,36.75,0,0,1-2.85,13.93,26.41,26.41,0,0,1-3.25,5.27,26.78,26.78,0,0,1-3.9,3.92,29.28,29.28,0,0,0,8.59-16.13,45.39,45.39,0,0,0,.7-7c.19-4.79-.21-9.64,0-14.55A30.14,30.14,0,0,1,2172,793,15,15,0,0,1,2175,787.4Z" transform="translate(-2139.74 -742.35)"/><path class="cls-8" d="M2171.6,784.51a13.38,13.38,0,0,0-3.76,6.66,54,54,0,0,0-1.15,8.91,71.62,71.62,0,0,1-1.13,9.16c-.14.75-.32,1.47-.52,2.19l-.29,1.08c-.1.36-.23.69-.35,1a30.56,30.56,0,0,1-1.66,3.85A42.32,42.32,0,0,0,2165,809c.49-3,.73-6,.95-9a44.73,44.73,0,0,1,1.36-9.12,6.7,6.7,0,0,1,.36-1l.4-1c.31-.63.66-1.21,1-1.78s.79-1,1.2-1.41S2171.17,784.86,2171.6,784.51Z" transform="translate(-2139.74 -742.35)"/><path class="cls-8" d="M2168.5,791.44a15.2,15.2,0,0,1,2.5-5.55,4.66,4.66,0,0,1,2-1.52,5.76,5.76,0,0,1,2.16-.29c-.67.44-1.36.74-2,1.13a6.91,6.91,0,0,0-1.74,1.57A47.49,47.49,0,0,0,2168.5,791.44Z" transform="translate(-2139.74 -742.35)"/><path class="cls-8" d="M2167,808.17a75.51,75.51,0,0,1-.87,11.85,32.82,32.82,0,0,1-3.45,10.7,20.67,20.67,0,0,1-6.23,6.91,24.62,24.62,0,0,1-7.26,3.28c1.19-.64,2.41-1.07,3.57-1.83a28.28,28.28,0,0,0,3.46-2.24,23,23,0,0,0,5.92-6.87,34.61,34.61,0,0,0,3.47-10.18c.37-1.87.62-3.8.84-5.74.12-1,.2-1.95.3-2.93Z" transform="translate(-2139.74 -742.35)"/><path class="cls-8" d="M2144.66,839.18c.82-.34,1.65-.58,2.47-.92s1.64-.61,2.45-.93a34.85,34.85,0,0,0,4.79-2.36,18.61,18.61,0,0,0,4.4-3.6,23.69,23.69,0,0,0,3.52-5.6,25.13,25.13,0,0,1-1.37,3.4,20.22,20.22,0,0,1-1.81,2.89,16.23,16.23,0,0,1-4.48,4,21.67,21.67,0,0,1-4.93,2.14A28.66,28.66,0,0,1,2144.66,839.18Z" transform="translate(-2139.74 -742.35)"/><path class="cls-8" d="M2168.86,816.39a30.53,30.53,0,0,1-.59,8.59,17.38,17.38,0,0,1-1.34,3.86,14.06,14.06,0,0,1-2,3c.54-1.16,1.07-2.3,1.54-3.48a27.52,27.52,0,0,0,1.12-3.74C2168.2,822,2168.49,819.21,2168.86,816.39Z" transform="translate(-2139.74 -742.35)"/><path class="cls-8" d="M2173.71,821c-.05.72-.07,1.46-.15,2.18s-.16,1.46-.32,2.16-.3,1.4-.52,2.06l-.3,1-.37,1a23,23,0,0,1-3.84,6.47,26.35,26.35,0,0,1-4.83,4.45,30.48,30.48,0,0,1-5.2,3.06c.83-.64,1.68-1.21,2.5-1.88s1.65-1.27,2.46-2a38.5,38.5,0,0,0,4.64-4.58,25.19,25.19,0,0,0,3.81-6A27.62,27.62,0,0,0,2173.71,821Z" transform="translate(-2139.74 -742.35)"/><path class="cls-8" d="M2175.08,830.09a14.62,14.62,0,0,0,3.37,4,18.07,18.07,0,0,0,3.9,2.49,29.76,29.76,0,0,0,8.35,2.47,14.8,14.8,0,0,1-8.56-1.39,14.44,14.44,0,0,1-4-2.81A13.27,13.27,0,0,1,2175.08,830.09Z" transform="translate(-2139.74 -742.35)"/><path class="cls-8" d="M2169.14,810.19a79.4,79.4,0,0,1,.38-11.23,35,35,0,0,1,1-5.47,12.67,12.67,0,0,1,2.17-4.5,21,21,0,0,0-1.65,4.83,50.42,50.42,0,0,0-.82,5.34C2169.82,802.79,2169.56,806.49,2169.14,810.19Z" transform="translate(-2139.74 -742.35)"/><path class="cls-7" d="M2174.89,824.18a53.85,53.85,0,0,0,3.12,5.66,29.55,29.55,0,0,0,3.73,4.58,9.17,9.17,0,0,1-4.23-3.77A19.28,19.28,0,0,1,2174.89,824.18Z" transform="translate(-2139.74 -742.35)"/><path class="cls-7" d="M2165.76,840.19c.72-.87,1.43-1.67,2.15-2.5s1.42-1.67,2.16-2.46a7,7,0,0,1,2.49-1.86,2.6,2.6,0,0,1,2.7.62,3.19,3.19,0,0,0-2.55.23,10.47,10.47,0,0,0-2.24,1.95c-.74.76-1.48,1.56-2.26,2.25A12.54,12.54,0,0,1,2165.76,840.19Z" transform="translate(-2139.74 -742.35)"/><path class="cls-7" d="M2165.58,812.79a25.16,25.16,0,0,1-.64,5.85,18.37,18.37,0,0,1-1.92,5.11c.38-1.91.84-3.68,1.25-5.5S2165.06,814.62,2165.58,812.79Z" transform="translate(-2139.74 -742.35)"/><path class="cls-9" d="M2174,818.75c3,11.42,7.67,15.74,13,18.07a17.67,17.67,0,0,1,4.87-3.35s-8.81.27-14.25-15.26Z" transform="translate(-2139.74 -742.35)"/></g></g></svg>